<?xml version="1.0" encoding="utf-8"?>
<!-- Generator: Adobe Illustrator 22.0.0, SVG Export Plug-In . SVG Version: 6.00 Build 0)  -->
<svg version="1.1" xmlns="http://www.w3.org/2000/svg" xmlns:xlink="http://www.w3.org/1999/xlink" x="0px" y="0px"
	 viewBox="0 0 32 32" style="enable-background:new 0 0 32 32;" xml:space="preserve">
<style type="text/css">
	.st0{display:none;}
	.st1{display:inline;}
</style>
<g id="Layer_1" class="st0">
</g>
<g id="Layer_2">
</g>
<g id="Layer_3">
</g>
<g id="Layer_4">
</g>
<g id="Layer_5">
</g>
<g id="Layer_6">
</g>
<g id="Layer_7">
</g>
<g id="Layer_8">
</g>
<g id="Layer_9">
</g>
<g id="Layer_10">
</g>
<g id="Layer_11">
</g>
<g id="Layer_12">
	<path d="M29.547,9.349c0.213-0.585,0.341-1.203,0.341-1.844c0-1.44-0.561-2.794-1.58-3.813s-2.373-1.58-3.813-1.58
		c-0.641,0-1.259,0.128-1.844,0.341c-3.223-2.082-7.569-1.656-10.314,1.09l-8.793,8.793c-2.746,2.745-3.173,7.091-1.09,10.314
		c-0.213,0.585-0.341,1.203-0.341,1.844c0,1.44,0.561,2.794,1.58,3.813s2.373,1.58,3.813,1.58c0.65,0,1.276-0.13,1.868-0.348
		c1.353,0.87,2.892,1.322,4.438,1.322c2.135,0,4.263-0.815,5.852-2.405l8.793-8.793C31.202,16.918,31.629,12.572,29.547,9.349z
		 M4.816,13.609l8.793-8.793c1.929-1.928,4.865-2.388,7.268-1.285c-0.063,0.057-0.135,0.1-0.195,0.16L3.692,20.683
		c-0.06,0.06-0.103,0.132-0.16,0.195C2.429,18.474,2.888,15.538,4.816,13.609z M4.964,27.036c-0.678-0.679-1.052-1.581-1.052-2.541
		c0-0.959,0.374-1.861,1.052-2.54L21.955,4.964c0.679-0.678,1.581-1.052,2.54-1.052c0.96,0,1.862,0.374,2.541,1.052
		c0.678,0.679,1.052,1.581,1.052,2.541c0,0.959-0.374,1.861-1.052,2.54L10.045,27.036C8.687,28.392,6.321,28.392,4.964,27.036z
		 M27.184,18.391l-8.793,8.793c-1.928,1.927-4.864,2.387-7.268,1.285c0.063-0.057,0.134-0.1,0.195-0.16l16.991-16.991
		c0.06-0.06,0.103-0.132,0.16-0.195C29.571,13.526,29.112,16.462,27.184,18.391z"/>
	<path d="M10.859,21.941c0.776,0.082,1.836,0.193,2.769-0.741c0.934-0.934,0.822-1.994,0.741-2.769
		c-0.077-0.727-0.077-1.008,0.224-1.308c0.299-0.3,0.581-0.3,1.308-0.224c0.776,0.081,1.836,0.192,2.769-0.741
		c0.935-0.935,0.824-1.996,0.744-2.77c-0.076-0.729-0.076-1.01,0.226-1.312c0.3-0.301,0.58-0.302,1.311-0.226
		c0.773,0.081,1.836,0.192,2.771-0.743c0.351-0.352,0.351-0.921,0-1.273c-0.352-0.351-0.921-0.351-1.273,0
		c-0.301,0.301-0.581,0.301-1.311,0.226c-0.774-0.081-1.836-0.192-2.77,0.743c-0.935,0.935-0.824,1.996-0.744,2.77
		c0.076,0.729,0.076,1.01-0.226,1.312c-0.3,0.299-0.582,0.298-1.308,0.224c-0.776-0.082-1.837-0.193-2.769,0.741
		c-0.934,0.934-0.822,1.994-0.741,2.769c0.077,0.727,0.077,1.008-0.223,1.308c-0.3,0.299-0.582,0.3-1.308,0.223
		c-0.773-0.08-1.835-0.192-2.768,0.741c-0.352,0.351-0.352,0.921,0,1.272c0.176,0.176,0.406,0.264,0.636,0.264
		s0.46-0.088,0.636-0.264C9.852,21.866,10.132,21.864,10.859,21.941z"/>
</g>
<g id="Layer_13">
</g>
<g id="Layer_14">
</g>
<g id="Layer_15">
</g>
<g id="Layer_16">
</g>
<g id="Layer_17">
</g>
<g id="Layer_18">
</g>
<g id="Layer_19">
</g>
<g id="Layer_20">
</g>
<g id="Layer_21">
</g>
<g id="Layer_22">
</g>
<g id="Layer_23">
</g>
<g id="Layer_24">
</g>
<g id="Layer_25">
</g>
<g id="Layer_26">
</g>
</svg>
